<svg width="24" height="24" fill="none" xmlns="http://www.w3.org/2000/svg"><path d="M2.26 1.874c-.186.114-.41.385-.456.552-.097.35-.33.095 4.382 4.814l4.333 4.34-4.336 4.34c-4.721 4.724-4.48 4.46-4.376 4.809.094.311.475.631.753.631a.867.867 0 0 0 .271-.062c.105-.043 1.42-1.332 4.449-4.36l4.301-4.297 4.279 4.282c2.413 2.414 4.345 4.316 4.428 4.36.274.142.538.081.807-.188s.33-.533.188-.807c-.044-.083-1.946-2.015-4.36-4.428l-4.282-4.279 4.297-4.301c3.028-3.029 4.317-4.344 4.36-4.449a.594.594 0 0 0-.016-.546c-.086-.169-.318-.39-.469-.448-.145-.055-.402-.045-.525.02-.059.032-2.043 1.994-4.408 4.36l-4.3 4.303-4.32-4.318c-2.439-2.438-4.369-4.336-4.433-4.36-.172-.064-.434-.05-.567.032" fill-rule="evenodd" fill="#000"/></svg>